<?xml version="1.0" standalone="no"?>
<!DOCTYPE svg PUBLIC "-//W3C//DTD SVG 20010904//EN"
 "http://www.w3.org/TR/2001/REC-SVG-20010904/DTD/svg10.dtd">
<svg version="1.0" xmlns="http://www.w3.org/2000/svg"
 width="345.000000pt" height="345.000000pt" viewBox="0 0 345.000000 345.000000"
 preserveAspectRatio="xMidYMid meet">
<metadata>
Created by potrace 1.14, written by Peter Selinger 2001-2017
</metadata>
<g transform="translate(0.000000,345.000000) scale(0.100000,-0.100000)"
fill="#000000" stroke="none">
<path d="M1491 3434 c-233 -33 -478 -121 -666 -239 -22 -14 -50 -30 -62 -37
-13 -6 -23 -15 -23 -20 0 -4 -6 -8 -14 -8 -8 0 -16 -3 -18 -7 -2 -5 -21 -21
-43 -38 -67 -50 -172 -148 -239 -225 -44 -50 -146 -186 -146 -194 0 -3 -14
-25 -30 -50 -100 -147 -198 -423 -235 -656 -11 -69 -14 -357 -4 -430 32 -239
101 -454 203 -635 44 -79 133 -215 150 -230 6 -5 28 -31 49 -57 65 -82 173
-184 262 -250 27 -21 55 -41 60 -45 27 -23 149 -95 213 -127 121 -61 287 -121
392 -142 14 -3 43 -9 66 -14 109 -25 408 -34 529 -17 517 72 950 341 1228 762
49 75 118 195 122 215 1 3 13 31 27 62 46 100 104 306 124 443 13 88 12 371
-2 465 -64 426 -272 806 -589 1076 -107 91 -207 157 -343 226 -167 85 -315
133 -513 168 -97 18 -389 20 -498 4z"/>
</g>
</svg>
